<svg width="47" height="46" viewBox="0 0 47 46" fill="none" xmlns="http://www.w3.org/2000/svg">
<path d="M23.691 25.1529C26.1599 28.6935 29.2645 31.7981 32.8051 34.267C29.2645 36.7359 26.1599 39.8405 23.691 43.3812C21.2221 39.8405 18.1175 36.7359 14.5768 34.267C18.1175 31.8012 21.2221 28.6966 23.691 25.1529ZM23.691 22.8467C20.8198 27.4867 16.9076 31.3989 12.2676 34.2701C16.9076 37.1413 20.8198 41.0535 23.691 45.6935C26.5622 41.0535 30.4744 37.1413 35.1144 34.2701C30.4713 31.3958 26.5622 27.4867 23.691 22.8467Z" fill="#FCFAE2"/>
<path d="M23.691 2.30617C26.1599 5.84682 29.2645 8.9514 32.8051 11.4203C29.2645 13.8893 26.1599 16.9938 23.691 20.5345C21.2221 16.9938 18.1175 13.8893 14.5768 11.4203C18.1175 8.95447 21.2221 5.84989 23.691 2.30617ZM23.691 0C20.8198 4.63999 16.9076 8.5522 12.2676 11.4234C16.9076 14.2946 20.8198 18.2068 23.691 22.8468C26.5622 18.2068 30.4744 14.2946 35.1144 11.4234C30.4713 8.54913 26.5622 4.63999 23.691 0Z" fill="#FCFAE2"/>
<path d="M35.1146 13.7295C37.5835 17.2702 40.6881 20.3747 44.2287 22.8437C40.6881 25.3126 37.5835 28.4172 35.1146 31.9578C32.6456 28.4172 29.541 25.3126 26.0004 22.8437C29.541 20.3778 32.6456 17.2732 35.1146 13.7295ZM35.1146 11.4233C32.2434 16.0633 28.3312 19.9755 23.6912 22.8467C28.3312 25.7179 32.2434 29.6302 35.1146 34.2701C37.9858 29.6302 41.898 25.7179 46.538 22.8467C41.8949 19.9725 37.9858 16.0633 35.1146 11.4233Z" fill="#FCFAE2"/>
<path d="M12.2672 13.7295C14.7361 17.2702 17.8407 20.3747 21.3813 22.8437C17.8407 25.3126 14.7361 28.4172 12.2672 31.9578C9.79822 28.4172 6.69363 25.3126 3.15299 22.8437C6.69363 20.3778 9.79822 17.2732 12.2672 13.7295ZM12.2672 11.4233C9.39595 16.0633 5.48374 19.9755 0.84375 22.8467C5.48374 25.7179 9.39595 29.6302 12.2672 34.2701C15.1384 29.6302 19.0506 25.7179 23.6906 22.8467C19.0475 19.9725 15.1384 16.0633 12.2672 11.4233Z" fill="#FCFAE2"/>
</svg>
