<svg width="142" height="20" viewBox="0 0 142 20" fill="none" xmlns="http://www.w3.org/2000/svg">
<path d="M28.4315 10.3721C28.6741 10.3322 28.8491 10.2308 28.9596 10.0681C29.0702 9.90532 29.1255 9.62588 29.1255 9.23282V1.86595C29.1255 1.47289 29.0702 1.19345 28.9596 1.03069C28.8491 0.86794 28.671 0.766597 28.4315 0.726676C28.1889 0.686756 27.7682 0.66833 27.1663 0.66833V0.373535H30.5473L34.5454 9.48462L38.5436 0.373535H41.7987V0.66833C41.1876 0.66833 40.7608 0.686756 40.5182 0.726676C40.2756 0.766597 40.1005 0.86794 39.9961 1.03069C39.8917 1.19345 39.8395 1.47289 39.8395 1.86595V9.23282C39.8395 9.62588 39.8917 9.90532 39.9961 10.0681C40.1005 10.2308 40.2756 10.3322 40.5182 10.3721C40.7608 10.412 41.1876 10.4304 41.7987 10.4304V10.7252H36.7411V10.4304C37.3522 10.4304 37.779 10.412 38.0216 10.3721C38.2642 10.3322 38.4392 10.2308 38.5436 10.0681C38.648 9.90532 38.7003 9.62588 38.7003 9.23282V0.904788L34.3366 10.8726H33.9251L29.5462 0.889429V9.23282C29.5462 9.62588 29.6014 9.90532 29.712 10.0681C29.8225 10.2308 29.9976 10.3322 30.2402 10.3721C30.4828 10.412 30.9035 10.4304 31.5053 10.4304V10.7252H27.1602V10.4304C27.7682 10.4304 28.1889 10.412 28.4315 10.3721Z" fill="#FCFAE2"/>
<path d="M55.335 10.1634C55.4916 10.2832 55.6758 10.3569 55.8877 10.3845C56.0996 10.4152 56.4159 10.4275 56.8366 10.4275V10.7223H52.301V10.4275C52.8476 10.4275 53.2407 10.3999 53.4771 10.3477C53.7136 10.2924 53.8333 10.1634 53.8333 9.9546C53.8333 9.85634 53.8026 9.7335 53.7382 9.5861L52.4883 6.77631H47.9374L46.6876 9.5861C46.6231 9.71508 46.5924 9.83177 46.5924 9.94232C46.5924 10.1481 46.7121 10.2832 46.9547 10.3415C47.1973 10.3999 47.575 10.4306 48.094 10.4306V10.7254H44.4121V10.4306C44.9587 10.4306 45.3641 10.3784 45.6281 10.274C45.8922 10.1696 46.1011 9.94232 46.2607 9.5861L50.0071 1.23044C49.9242 1.04312 49.8167 0.911074 49.6908 0.837374C49.5649 0.763675 49.4052 0.717606 49.2179 0.69611C49.0275 0.677685 48.7266 0.66541 48.3182 0.66541V0.370605H50.8147L54.9235 9.5861C55.0371 9.85326 55.1753 10.0467 55.335 10.1634ZM48.0786 6.48152H52.3471L50.2129 1.68798L48.0786 6.48152Z" fill="#FCFAE2"/>
<path d="M60.7086 10.3721C60.9512 10.3322 61.1262 10.2308 61.2367 10.0681C61.3473 9.90532 61.4026 9.62588 61.4026 9.23282V1.86595C61.4026 1.47289 61.3473 1.19345 61.2367 1.03069C61.1262 0.86794 60.9481 0.766597 60.7086 0.726676C60.466 0.686756 60.0453 0.66833 59.4434 0.66833V0.373535H65.4499C66.7366 0.373535 67.7346 0.579276 68.4439 0.993835C69.1564 1.40839 69.5095 1.98878 69.5095 2.73806C69.5095 3.49655 69.1625 4.08307 68.4654 4.49763C67.7684 4.91219 66.8164 5.11794 65.6034 5.11794C65.4867 5.11794 65.281 5.10872 64.9862 5.08723C65.6802 5.37281 66.2544 5.6891 66.7089 6.03303C67.1603 6.37696 67.5227 6.72704 67.7929 7.08325C68.0632 7.43947 68.3764 7.91237 68.7326 8.50196L69.0182 8.97487C69.3038 9.42935 69.5494 9.75792 69.7613 9.96673C69.9732 10.1725 70.1728 10.3015 70.3632 10.3506C70.5536 10.3997 70.8207 10.4243 71.1677 10.4243V10.7191H68.8124C68.622 10.4519 68.4409 10.1633 68.2658 9.85312C68.0908 9.54296 67.9311 9.23896 67.7837 8.94416C67.3845 8.18567 67.0129 7.56844 66.669 7.09554C66.3251 6.62263 65.8245 6.16201 65.1582 5.71367C64.4949 5.26534 63.6197 4.88148 62.5357 4.56826V9.22667C62.5357 9.61973 62.591 9.89918 62.7015 10.0619C62.8121 10.2247 62.9871 10.326 63.2297 10.3659C63.4723 10.4059 63.893 10.4243 64.4949 10.4243V10.7191H59.4373V10.4243C60.0422 10.4304 60.466 10.412 60.7086 10.3721ZM64.0742 4.67574C64.5471 4.77401 65.0261 4.82313 65.5113 4.82313C66.3865 4.82313 67.059 4.62967 67.535 4.23968C68.0079 3.84969 68.2474 3.34915 68.2474 2.73806C68.2474 2.13618 67.9956 1.64178 67.4981 1.25179C66.9976 0.861798 66.2729 0.66833 65.324 0.66833H62.5418V4.27653C63.0884 4.44542 63.5982 4.57747 64.0742 4.67574Z" fill="#FCFAE2"/>
<path d="M78.3623 0.374023V0.668818C77.7604 0.668818 77.3397 0.687244 77.0971 0.727164C76.8545 0.767085 76.6795 0.868428 76.569 1.03118C76.4584 1.19393 76.4031 1.47338 76.4031 1.86644V7.02847C76.4031 7.74704 76.5475 8.37655 76.8392 8.91394C77.1278 9.45133 77.5363 9.86281 78.0644 10.1484C78.5926 10.434 79.1976 10.5783 79.8824 10.5783C80.5671 10.5783 81.1721 10.434 81.7003 10.1484C82.2254 9.86281 82.6338 9.45133 82.9255 8.91394C83.2142 8.37655 83.3616 7.74704 83.3616 7.02847V1.86644C83.3616 1.47338 83.3063 1.19393 83.1958 1.03118C83.0852 0.868428 82.9071 0.767085 82.6645 0.727164C82.4219 0.687244 82.0012 0.668818 81.3993 0.668818V0.374023H85.7445V0.668818C85.1427 0.668818 84.7219 0.687244 84.4794 0.727164C84.2368 0.767085 84.0617 0.868428 83.9512 1.03118C83.8406 1.19393 83.7854 1.47338 83.7854 1.86644V6.95476C83.7854 8.18616 83.4169 9.15039 82.6799 9.83825C81.9429 10.5292 80.9203 10.8731 79.6121 10.8731C78.2518 10.8731 77.1893 10.5292 76.4185 9.83825C75.6508 9.14732 75.2639 8.18616 75.2639 6.95476V1.86644C75.2639 1.47338 75.2086 1.19393 75.098 1.03118C74.9875 0.868428 74.8125 0.767085 74.5699 0.727164C74.3273 0.687244 73.9066 0.668818 73.3047 0.668818V0.374023H78.3623Z" fill="#FCFAE2"/>
<path d="M90.3257 10.3726C90.5683 10.3327 90.7433 10.2313 90.8539 10.0686C90.9644 9.90581 91.0197 9.62637 91.0197 9.2333V1.86644C91.0197 1.47338 90.9644 1.19393 90.8539 1.03118C90.7433 0.868428 90.5652 0.767085 90.3257 0.727164C90.0831 0.687244 89.6624 0.668818 89.0605 0.668818V0.374023H94.1182V0.668818C93.5163 0.668818 93.0956 0.687244 92.853 0.727164C92.6104 0.767085 92.4354 0.868428 92.3248 1.03118C92.2143 1.19393 92.159 1.47338 92.159 1.86644V10.4309H95.1315C95.7856 10.4309 96.3261 10.3296 96.7529 10.1269C97.1798 9.92424 97.5575 9.62022 97.883 9.21795C98.2085 8.8126 98.6138 8.21073 99.099 7.41232L99.3355 7.55971L97.8185 10.7257H89.0636V10.4309C89.6624 10.4309 90.0831 10.4125 90.3257 10.3726Z" fill="#FCFAE2"/>
<path d="M112.706 10.1634C112.863 10.2832 113.047 10.3569 113.259 10.3845C113.471 10.4152 113.784 10.4275 114.208 10.4275V10.7223H109.672V10.4275C110.219 10.4275 110.612 10.3999 110.848 10.3477C111.085 10.2924 111.204 10.1634 111.204 9.9546C111.204 9.85634 111.174 9.7335 111.109 9.5861L109.859 6.77631H105.308L104.059 9.5861C103.994 9.71508 103.963 9.83177 103.963 9.94232C103.963 10.1481 104.083 10.2832 104.326 10.3415C104.568 10.3999 104.946 10.4306 105.465 10.4306V10.7254H101.783V10.4306C102.33 10.4306 102.738 10.3784 102.999 10.274C103.263 10.1696 103.472 9.94232 103.632 9.5861L107.378 1.23044C107.295 1.04312 107.188 0.911074 107.062 0.837374C106.936 0.763675 106.776 0.717606 106.589 0.69611C106.399 0.677685 106.098 0.66541 105.689 0.66541V0.370605H108.186L112.295 9.5861C112.411 9.85326 112.546 10.0467 112.706 10.1634ZM105.45 6.48152H109.718L107.584 1.68798L105.45 6.48152Z" fill="#FCFAE2"/>
<path d="M0.251806 16.5938C0.411488 16.3328 0.632587 16.1271 0.91203 15.9766C1.19147 15.8292 1.50162 15.7524 1.83941 15.7524C2.18641 15.7524 2.49964 15.8507 2.78215 16.0472L2.8712 15.7524H2.95412L3.65119 17.079L3.57135 17.1435C3.34104 16.729 3.08616 16.4096 2.80672 16.1854C2.52727 15.9613 2.21405 15.8507 1.86398 15.8507C1.58761 15.8507 1.33887 15.9213 1.11777 16.0657C0.896676 16.21 0.724711 16.4065 0.604949 16.6522C0.482117 16.8979 0.420699 17.1712 0.420699 17.469C0.420699 17.77 0.488258 18.0433 0.623374 18.292C0.758489 18.5407 0.942737 18.7342 1.17919 18.8755C1.41564 19.0167 1.67666 19.0904 1.96225 19.0904C2.62247 19.0904 3.12915 18.6943 3.48229 17.902L3.57135 17.945C3.40245 18.3565 3.17828 18.6851 2.89884 18.9246C2.61633 19.1641 2.26933 19.2839 1.8517 19.2839C1.50777 19.2839 1.19454 19.201 0.91203 19.0382C0.629516 18.8755 0.405347 18.6544 0.242594 18.3749C0.0798413 18.0955 0 17.7945 0 17.466C0.00921242 17.1466 0.0890533 16.8549 0.251806 16.5938Z" fill="#FCFAE2"/>
<path d="M7.15869 19.0536C6.87617 18.8969 6.65201 18.682 6.48311 18.4118C6.31729 18.1415 6.23438 17.8437 6.23438 17.5212C6.23438 17.1988 6.31729 16.9009 6.48311 16.6307C6.64894 16.3605 6.8731 16.1486 7.15869 15.9889C7.4412 15.8323 7.75443 15.7524 8.09221 15.7524C8.43 15.7524 8.74323 15.8323 9.02574 15.9889C9.30825 16.1455 9.53242 16.3605 9.70132 16.6307C9.86714 16.9009 9.95005 17.1988 9.95005 17.5212C9.95005 17.8437 9.86714 18.1415 9.70132 18.4118C9.53549 18.682 9.31133 18.8939 9.02574 19.0536C8.74323 19.2102 8.43 19.29 8.09221 19.29C7.75443 19.29 7.44427 19.2102 7.15869 19.0536ZM8.84763 18.9645C9.05952 18.814 9.22841 18.6114 9.34817 18.3565C9.46794 18.1016 9.52935 17.8222 9.52935 17.5212C9.52935 17.2172 9.46794 16.9378 9.34203 16.6829C9.2192 16.428 9.04417 16.2254 8.82 16.078C8.59583 15.9306 8.33788 15.8538 8.04922 15.8538C7.7882 15.8538 7.54868 15.9306 7.3368 16.081C7.12491 16.2315 6.95601 16.4342 6.83625 16.689C6.71649 16.9439 6.65508 17.2234 6.65508 17.5243C6.65508 17.8283 6.71649 18.1078 6.8424 18.3626C6.96523 18.6175 7.14026 18.8202 7.36443 18.9676C7.5886 19.115 7.84655 19.1917 8.13521 19.1917C8.39622 19.1917 8.63575 19.115 8.84763 18.9645Z" fill="#FCFAE2"/>
<path d="M12.6512 19.1212C12.731 19.1089 12.7894 19.0751 12.8262 19.0198C12.8631 18.9645 12.8815 18.8724 12.8815 18.7435V16.2991C12.8815 16.167 12.8631 16.0749 12.8262 16.0227C12.7894 15.9674 12.731 15.9337 12.6512 15.9214C12.5713 15.9091 12.4301 15.903 12.2305 15.903V15.8047H13.3329L15.4149 18.6974V16.3022C15.4149 16.1701 15.3965 16.078 15.3596 16.0258C15.3228 15.9736 15.2644 15.9367 15.1846 15.9245C15.1047 15.9122 14.9635 15.906 14.7639 15.906V15.8078H16.2072V15.906C16.0076 15.906 15.8694 15.9122 15.7865 15.9245C15.7066 15.9367 15.6483 15.9705 15.6114 16.0258C15.5746 16.0811 15.5562 16.1732 15.5562 16.3022V19.2931H15.4149L13.0227 15.9736V18.7465C13.0227 18.8786 13.0412 18.9707 13.078 19.0229C13.1149 19.0751 13.1732 19.1119 13.253 19.1242C13.3329 19.1365 13.4741 19.1427 13.6737 19.1427V19.2409H12.2305V19.1427C12.4301 19.1396 12.5713 19.1334 12.6512 19.1212Z" fill="#FCFAE2"/>
<path d="M19.3308 18.8202C19.6256 19.0658 19.9695 19.1917 20.3565 19.1917C20.5622 19.1917 20.7434 19.1488 20.8969 19.0628C21.0505 18.9768 21.1702 18.8662 21.2501 18.7281C21.3299 18.5899 21.3729 18.4425 21.3729 18.2859C21.3729 18.117 21.333 17.9696 21.2562 17.8437C21.1764 17.7208 21.072 17.6256 20.9399 17.5612C20.8079 17.4967 20.6605 17.466 20.5039 17.466C20.3964 17.466 20.2551 17.4813 20.0801 17.5151C20.0064 17.5274 19.9266 17.5397 19.8436 17.5519C19.7607 17.5642 19.6717 17.5704 19.5765 17.5704C19.4015 17.5704 19.2418 17.5335 19.0944 17.4629C18.947 17.3923 18.8303 17.2909 18.7443 17.162C18.6552 17.033 18.6123 16.8886 18.6123 16.7259C18.6123 16.557 18.6645 16.3973 18.7689 16.2468C18.8733 16.0994 19.0237 15.9797 19.2233 15.8876C19.4199 15.7985 19.6502 15.7524 19.9143 15.7524C20.3073 15.7524 20.6513 15.8507 20.9522 16.0472L21.0413 15.7524H21.1242L21.8212 17.079L21.7414 17.1435C21.2654 16.2837 20.6881 15.8538 20.0064 15.8538C19.8222 15.8538 19.6533 15.8906 19.5059 15.9643C19.3585 16.038 19.2418 16.1394 19.1558 16.2653C19.0729 16.3942 19.0299 16.5324 19.0299 16.686C19.0299 16.9132 19.1036 17.0944 19.2541 17.2356C19.4045 17.3769 19.6011 17.4475 19.8406 17.4475C19.9481 17.4475 20.0893 17.4322 20.2643 17.3984C20.338 17.3861 20.4179 17.3738 20.5008 17.3616C20.5837 17.3493 20.6728 17.3431 20.768 17.3431C20.9491 17.3431 21.118 17.38 21.2777 17.4598C21.4343 17.5366 21.5602 17.6441 21.6524 17.7792C21.7445 17.9143 21.7905 18.0678 21.7905 18.2337C21.7905 18.4302 21.7291 18.6083 21.6094 18.7711C21.4896 18.9338 21.3238 19.0597 21.1119 19.1518C20.9 19.244 20.6636 19.29 20.4056 19.29C20.0125 19.29 19.6655 19.1825 19.3554 18.9707L19.2571 19.29H19.1773L18.4434 17.8621L18.5232 17.7976C18.7689 18.2306 19.036 18.5714 19.3308 18.8202Z" fill="#FCFAE2"/>
<path d="M24.575 19.1212C24.6548 19.1089 24.7132 19.0751 24.75 19.0198C24.7869 18.9645 24.8053 18.8724 24.8053 18.7435V16.2991C24.8053 16.167 24.7869 16.0749 24.75 16.0227C24.7132 15.9674 24.6548 15.9337 24.575 15.9214C24.4952 15.9091 24.3539 15.903 24.1543 15.903V15.8047H27.0224L27.526 16.8518L27.4462 16.9071C27.2865 16.6399 27.1514 16.4373 27.0409 16.3052C26.9303 16.1732 26.8075 16.0718 26.6662 16.0043C26.525 15.9367 26.3469 15.903 26.1288 15.903H25.1799V17.3462H26.1718C26.3469 17.3462 26.4728 17.3278 26.5526 17.291C26.6324 17.2541 26.6816 17.1958 26.7061 17.1129C26.7307 17.0299 26.743 16.904 26.743 16.7351H26.8474V18.2183H26.743C26.743 17.9911 26.7307 17.8283 26.7061 17.7239C26.6816 17.6195 26.6294 17.5489 26.5526 17.5059C26.4728 17.4629 26.3469 17.4414 26.1718 17.4414H25.1799V19.1396H26.1872C26.4052 19.1396 26.5833 19.1058 26.7246 19.0382C26.8658 18.9707 26.9917 18.8693 27.0992 18.7373C27.2067 18.6053 27.3418 18.4026 27.5045 18.1324L27.5844 18.1876L27.0808 19.2378H24.1543V19.1396C24.3539 19.1396 24.4921 19.1334 24.575 19.1212Z" fill="#FCFAE2"/>
<path d="M30.2605 19.1212C30.3404 19.1089 30.3987 19.0751 30.4356 19.0198C30.4724 18.9645 30.4909 18.8724 30.4909 18.7435V16.2991C30.4909 16.167 30.4724 16.0749 30.4356 16.0227C30.3987 15.9674 30.3404 15.9337 30.2605 15.9214C30.1807 15.9091 30.0394 15.903 29.8398 15.903V15.8047H31.8328C32.2596 15.8047 32.5913 15.8722 32.8277 16.0104C33.0642 16.1486 33.1809 16.3421 33.1809 16.5908C33.1809 16.8426 33.0642 17.0361 32.8339 17.1743C32.6036 17.3125 32.2873 17.38 31.885 17.38C31.8451 17.38 31.7775 17.3769 31.6793 17.3708C31.9096 17.466 32.1 17.5704 32.2504 17.684C32.4009 17.7976 32.5207 17.9143 32.6097 18.031C32.6988 18.1477 32.8032 18.3074 32.9229 18.5009L33.0181 18.6575C33.1133 18.8079 33.1962 18.9185 33.2638 18.986C33.3344 19.0536 33.3989 19.0966 33.4634 19.115C33.5279 19.1334 33.6169 19.1396 33.7306 19.1396V19.2378H32.9506C32.8861 19.1488 32.8277 19.0536 32.7694 18.9492C32.711 18.8448 32.6588 18.7465 32.6097 18.6483C32.4777 18.3965 32.3548 18.1907 32.2412 18.0341C32.1276 17.8775 31.9618 17.7239 31.7407 17.5765C31.5196 17.4291 31.2309 17.3002 30.8686 17.1958V18.7435C30.8686 18.8755 30.887 18.9676 30.9238 19.0198C30.9607 19.072 31.019 19.1089 31.0989 19.1212C31.1787 19.1334 31.32 19.1396 31.5196 19.1396V19.2378H29.8398V19.1396C30.0425 19.1396 30.1807 19.1334 30.2605 19.1212ZM31.3783 17.2326C31.5349 17.2664 31.6946 17.2817 31.8543 17.2817C32.1429 17.2817 32.3671 17.2173 32.5268 17.0883C32.6834 16.9593 32.7633 16.7935 32.7633 16.5908C32.7633 16.3912 32.6803 16.2254 32.5145 16.0964C32.3487 15.9674 32.1092 15.903 31.7929 15.903H30.8686V17.1006C31.0528 17.1558 31.2217 17.1988 31.3783 17.2326Z" fill="#FCFAE2"/>
<path d="M36.969 15.8018V15.9C36.7571 15.9 36.6097 15.9092 36.5299 15.9246C36.45 15.94 36.4132 15.986 36.4132 16.0566C36.4132 16.0966 36.4285 16.1488 36.4593 16.2194L37.6016 18.8419L38.7501 16.2194C38.7808 16.1518 38.7961 16.0966 38.7961 16.0536C38.7961 15.986 38.7562 15.943 38.6794 15.9246C38.6027 15.9062 38.4584 15.9 38.2526 15.9V15.8018H39.5423V15.9C39.3888 15.9 39.2783 15.9062 39.2076 15.9154C39.1401 15.9246 39.0817 15.9522 39.0326 15.9952C38.9835 16.0382 38.9374 16.115 38.8913 16.2194L37.5494 19.2871H37.402L36.06 16.2194C36.014 16.115 35.9679 16.0413 35.9188 15.9952C35.8697 15.9522 35.8113 15.9246 35.7438 15.9154C35.6762 15.9062 35.5656 15.9 35.4121 15.9V15.8018H36.969Z" fill="#FCFAE2"/>
<path d="M44.4274 19.0535C44.4796 19.0934 44.541 19.1179 44.6117 19.1272C44.6823 19.1364 44.7867 19.1425 44.9249 19.1425V19.2408H43.4202V19.1425C43.6014 19.1425 43.7334 19.1333 43.8102 19.1149C43.8869 19.0964 43.9269 19.0535 43.9269 18.9859C43.9269 18.9521 43.9177 18.9122 43.8962 18.8631L43.4816 17.9295H41.9708L41.5562 18.8631C41.5347 18.9061 41.5255 18.946 41.5255 18.9798C41.5255 19.0473 41.5654 19.0934 41.6453 19.1118C41.7251 19.1302 41.851 19.1425 42.023 19.1425V19.2408H40.8008V19.1425C40.982 19.1425 41.1171 19.1241 41.2061 19.0903C41.2921 19.0565 41.3627 18.9798 41.4149 18.8631L42.6586 16.0901C42.631 16.0287 42.5941 15.9857 42.5542 15.9612C42.5112 15.9366 42.459 15.9212 42.3976 15.9151C42.3362 15.909 42.2348 15.9059 42.0997 15.9059V15.8076H42.9289L44.2923 18.8661C44.3322 18.9491 44.3752 19.0135 44.4274 19.0535ZM42.0199 17.8313H43.4355L42.7262 16.2406L42.0199 17.8313Z" fill="#FCFAE2"/>
<path d="M49.8059 15.8018L50.2819 16.8489L50.202 16.9042C50.0362 16.6278 49.9042 16.4251 49.7998 16.2962C49.6954 16.1641 49.5756 16.0659 49.4405 16.0014C49.3054 15.9369 49.1273 15.9031 48.9092 15.9031H48.5377V18.7467C48.5377 18.8787 48.5561 18.9708 48.5929 19.023C48.6298 19.0752 48.6881 19.1121 48.768 19.1244C48.8478 19.1367 48.9891 19.1428 49.1887 19.1428H49.2624V19.2411H47.4383V19.1428H47.512C47.7116 19.1428 47.8498 19.1367 47.9327 19.1244C48.0126 19.1121 48.0709 19.0783 48.1077 19.023C48.1446 18.9678 48.163 18.8756 48.163 18.7467V15.9031H47.7915C47.5734 15.9031 47.3984 15.9369 47.2602 16.0014C47.122 16.0659 47.0053 16.1641 46.9009 16.2962C46.7965 16.4282 46.6614 16.6309 46.4956 16.9042L46.4219 16.8489L46.8979 15.8018H49.8059Z" fill="#FCFAE2"/>
<path d="M52.8562 19.1212C52.9361 19.1089 52.9944 19.0751 53.0313 19.0198C53.0681 18.9645 53.0866 18.8724 53.0866 18.7435V16.2991C53.0866 16.167 53.0681 16.0749 53.0313 16.0227C52.9944 15.9674 52.9361 15.9337 52.8562 15.9214C52.7764 15.9091 52.6351 15.903 52.4355 15.903V15.8047H54.1153V15.903C53.9157 15.903 53.7775 15.9091 53.6946 15.9214C53.6147 15.9337 53.5564 15.9674 53.5195 16.0227C53.4827 16.078 53.4643 16.1701 53.4643 16.2991V18.7435C53.4643 18.8755 53.4827 18.9676 53.5195 19.0198C53.5564 19.0751 53.6147 19.1089 53.6946 19.1212C53.7744 19.1334 53.9157 19.1396 54.1153 19.1396V19.2378H52.4355V19.1396C52.6351 19.1396 52.7764 19.1334 52.8562 19.1212Z" fill="#FCFAE2"/>
<path d="M57.3194 19.0536C57.0369 18.8969 56.8128 18.682 56.6469 18.4118C56.4811 18.1415 56.3982 17.8437 56.3982 17.5212C56.3982 17.1988 56.4811 16.9009 56.6469 16.6307C56.8128 16.3605 57.0369 16.1486 57.3194 15.9889C57.6019 15.8323 57.9152 15.7524 58.253 15.7524C58.5908 15.7524 58.904 15.8323 59.1865 15.9889C59.469 16.1455 59.6932 16.3605 59.859 16.6307C60.0248 16.9009 60.1077 17.1988 60.1077 17.5212C60.1077 17.8437 60.0248 18.1415 59.859 18.4118C59.6932 18.682 59.469 18.8939 59.1865 19.0536C58.904 19.2102 58.5908 19.29 58.253 19.29C57.9152 19.29 57.6019 19.2102 57.3194 19.0536ZM59.0084 18.9645C59.2203 18.814 59.3892 18.6114 59.5089 18.3565C59.6287 18.1016 59.6901 17.8222 59.6901 17.5212C59.6901 17.2172 59.6287 16.9378 59.5028 16.6829C59.3799 16.428 59.2049 16.2254 58.9807 16.078C58.7566 15.9306 58.4986 15.8538 58.21 15.8538C57.9489 15.8538 57.7094 15.9306 57.4975 16.081C57.2857 16.2315 57.1168 16.4342 56.997 16.689C56.8772 16.9439 56.8158 17.2234 56.8158 17.5243C56.8158 17.8283 56.8772 18.1078 57.0031 18.3626C57.126 18.6175 57.301 18.8202 57.5252 18.9676C57.7493 19.115 58.0073 19.1917 58.2959 19.1917C58.557 19.1917 58.7934 19.115 59.0084 18.9645Z" fill="#FCFAE2"/>
<path d="M62.8113 19.1212C62.8912 19.1089 62.9495 19.0751 62.9864 19.0198C63.0232 18.9645 63.0416 18.8724 63.0416 18.7435V16.2991C63.0416 16.167 63.0232 16.0749 62.9864 16.0227C62.9495 15.9674 62.8912 15.9337 62.8113 15.9214C62.7315 15.9091 62.5902 15.903 62.3906 15.903V15.8047H63.4931L65.5751 18.6974V16.3022C65.5751 16.1701 65.5566 16.078 65.5198 16.0258C65.4829 15.9705 65.4246 15.9367 65.3447 15.9245C65.2649 15.9122 65.1236 15.906 64.924 15.906V15.8078H66.3673V15.906C66.1677 15.906 66.0265 15.9122 65.9466 15.9245C65.8668 15.9367 65.8084 15.9705 65.7716 16.0258C65.7347 16.0811 65.7163 16.1732 65.7163 16.3022V19.2931H65.5751L63.1829 15.9736V18.7465C63.1829 18.8786 63.2013 18.9707 63.2382 19.0229C63.275 19.0782 63.3334 19.1119 63.4132 19.1242C63.493 19.1365 63.6343 19.1427 63.8339 19.1427V19.2409H62.3906V19.1427C62.5902 19.1396 62.7315 19.1334 62.8113 19.1212Z" fill="#FCFAE2"/>
<path d="M72.3289 19.1212C72.4088 19.1089 72.4671 19.0751 72.5039 19.0198C72.5408 18.9645 72.5592 18.8724 72.5592 18.7435V16.2991C72.5592 16.167 72.5408 16.0749 72.5039 16.0227C72.4671 15.9674 72.4088 15.9337 72.3289 15.9214C72.2491 15.9091 72.1078 15.903 71.9082 15.903V15.8047H73.9012C74.3311 15.8047 74.6627 15.8753 74.8992 16.0135C75.1356 16.1517 75.2492 16.3574 75.2492 16.6246C75.2492 16.8918 75.1326 17.0975 74.8992 17.2357C74.6658 17.3739 74.3341 17.4445 73.9012 17.4445H72.9369V18.7465C72.9369 18.8786 72.9554 18.9707 72.9922 19.0229C73.0291 19.0782 73.0874 19.1119 73.1672 19.1242C73.2471 19.1365 73.3883 19.1427 73.5879 19.1427V19.2409H71.9082V19.1427C72.1109 19.1396 72.2491 19.1334 72.3289 19.1212ZM74.5859 17.1466C74.7518 17.0146 74.8316 16.8396 74.8316 16.6246C74.8316 16.4096 74.7487 16.2346 74.5859 16.1026C74.4232 15.9705 74.1806 15.903 73.8612 15.903H72.9369V17.3462H73.8612C74.1806 17.3432 74.4201 17.2787 74.5859 17.1466Z" fill="#FCFAE2"/>
<path d="M80.5133 19.0535C80.5655 19.0934 80.627 19.1179 80.6976 19.1272C80.7682 19.1364 80.8726 19.1425 81.0108 19.1425V19.2408H79.5061V19.1425C79.6873 19.1425 79.8193 19.1333 79.8961 19.1149C79.9729 19.0964 80.0128 19.0535 80.0128 18.9859C80.0128 18.9521 80.0036 18.9122 79.9821 18.8631L79.5675 17.9295H78.0567L77.6421 18.8631C77.6206 18.9061 77.6114 18.946 77.6114 18.9798C77.6114 19.0473 77.6513 19.0934 77.7312 19.1118C77.811 19.1302 77.9369 19.1425 78.1089 19.1425V19.2408H76.8867V19.1425C77.0679 19.1425 77.203 19.1241 77.2921 19.0903C77.3781 19.0565 77.4487 18.9798 77.5009 18.8631L78.7446 16.0901C78.7169 16.0287 78.6801 15.9857 78.6401 15.9612C78.5972 15.9366 78.5449 15.9212 78.4835 15.9151C78.4221 15.909 78.3208 15.9059 78.1857 15.9059V15.8076H79.0148L80.3782 18.8661C80.4151 18.9491 80.4611 19.0135 80.5133 19.0535ZM78.1058 17.8313H79.5215L78.8121 16.2406L78.1058 17.8313Z" fill="#FCFAE2"/>
<path d="M83.3476 19.1212C83.4274 19.1089 83.4858 19.0751 83.5226 19.0198C83.5595 18.9645 83.5779 18.8724 83.5779 18.7435V16.2991C83.5779 16.167 83.5595 16.0749 83.5226 16.0227C83.4858 15.9674 83.4274 15.9337 83.3476 15.9214C83.2678 15.9091 83.1265 15.903 82.9269 15.903V15.8047H84.9199C85.3467 15.8047 85.6783 15.8722 85.9148 16.0104C86.1512 16.1486 86.2679 16.3421 86.2679 16.5908C86.2679 16.8426 86.1512 17.0361 85.9209 17.1743C85.6906 17.3125 85.3743 17.38 84.9721 17.38C84.9352 17.38 84.8646 17.3769 84.7663 17.3708C84.9966 17.466 85.187 17.5704 85.3375 17.684C85.4879 17.7976 85.6077 17.9143 85.6968 18.031C85.7858 18.1477 85.8902 18.3074 86.01 18.5009L86.1052 18.6575C86.2004 18.8079 86.2802 18.9185 86.3509 18.986C86.4215 19.0536 86.486 19.0966 86.5505 19.115C86.6149 19.1334 86.704 19.1396 86.8176 19.1396V19.2378H86.0345C85.9701 19.1488 85.9117 19.0536 85.8534 18.9492C85.795 18.8448 85.7428 18.7465 85.6937 18.6483C85.5616 18.3965 85.4388 18.1907 85.3252 18.0341C85.2116 17.8775 85.0458 17.7239 84.8247 17.5765C84.6036 17.4291 84.3149 17.3002 83.9525 17.1958V18.7435C83.9525 18.8755 83.971 18.9676 84.0078 19.0198C84.0447 19.0751 84.103 19.1089 84.1829 19.1212C84.2627 19.1334 84.404 19.1396 84.6036 19.1396V19.2378H82.9238V19.1396C83.1265 19.1396 83.2678 19.1334 83.3476 19.1212ZM84.4654 17.2326C84.622 17.2664 84.7817 17.2817 84.9413 17.2817C85.2331 17.2817 85.4542 17.2173 85.6138 17.0883C85.7705 16.9593 85.8503 16.7935 85.8503 16.5908C85.8503 16.3912 85.7674 16.2254 85.6016 16.0964C85.4357 15.9674 85.1962 15.903 84.8799 15.903H83.9556V17.1006C84.1368 17.1558 84.3057 17.1988 84.4654 17.2326Z" fill="#FCFAE2"/>
<path d="M92.3593 19.0106C92.4422 19.072 92.519 19.1089 92.5865 19.1212C92.6571 19.1334 92.7585 19.1396 92.8905 19.1396V19.2378H91.2077V19.1396H91.4319C91.567 19.1396 91.6622 19.1334 91.7144 19.1212C91.7666 19.1089 91.7942 19.072 91.7942 19.0137C91.7942 18.9553 91.7482 18.8663 91.653 18.7435L90.394 17.1589L89.8627 17.5551V18.7435C89.8627 18.8755 89.8811 18.9676 89.918 19.0198C89.9548 19.0751 90.0132 19.1089 90.093 19.1212C90.1728 19.1334 90.3141 19.1396 90.5137 19.1396V19.2378H88.834V19.1396C89.0336 19.1396 89.1718 19.1334 89.2547 19.1212C89.3345 19.1089 89.3929 19.0751 89.4297 19.0198C89.4666 18.9645 89.485 18.8724 89.485 18.7435V16.2991C89.485 16.167 89.4666 16.0749 89.4297 16.0227C89.3929 15.9674 89.3345 15.9337 89.2547 15.9214C89.1748 15.9091 89.0336 15.903 88.834 15.903V15.8047H90.5137V15.903C90.3141 15.903 90.1759 15.9091 90.093 15.9214C90.0132 15.9337 89.9548 15.9674 89.918 16.0227C89.8811 16.078 89.8627 16.1701 89.8627 16.2991V17.4138L91.3889 16.2653C91.4902 16.1855 91.5609 16.124 91.5977 16.0811C91.6346 16.0381 91.6561 16.0012 91.6561 15.9705C91.6561 15.9398 91.6346 15.9214 91.5916 15.9152C91.5486 15.906 91.4872 15.903 91.4073 15.903H91.2016V15.8047H92.6663V15.903C92.5067 15.903 92.3746 15.9091 92.2733 15.9245C92.1719 15.9398 92.0675 15.9736 91.9601 16.0258C91.8526 16.078 91.7236 16.1578 91.5762 16.2653L90.6673 16.947L92.0675 18.7127C92.1842 18.8509 92.2794 18.9492 92.3593 19.0106Z" fill="#FCFAE2"/>
<path d="M102.454 19.201H101.993L101.1 18.2368L100.495 18.8448C100.274 19.0751 99.9575 19.2102 99.6259 19.2102C98.981 19.2102 98.459 18.7189 98.459 18.117C98.459 17.5151 98.9841 17.0238 99.6259 17.0238C99.8654 17.0238 100.09 17.119 100.28 17.2388C100.243 17.1497 100.219 17.0606 100.219 16.9839C100.219 16.5509 100.596 16.1978 101.057 16.1978C101.275 16.1978 101.484 16.2776 101.64 16.4189L101.428 16.6185C101.355 16.4833 101.241 16.3237 101.057 16.3237C100.67 16.3237 100.357 16.6185 100.357 16.9808C100.357 17.1313 100.477 17.3616 100.587 17.4691C100.612 17.4906 100.636 17.5151 100.658 17.5336L101.155 17.9942L101.849 17.2971L101.95 17.3862L101.253 18.0863L102.454 19.201ZM101.008 18.1385L100.547 17.641C100.427 17.5121 100.292 17.3984 100.136 17.3094C99.9821 17.2203 99.8009 17.1528 99.6197 17.1528C98.9319 17.1528 98.7937 17.7854 98.8828 18.4579C98.9288 18.8141 99.2451 19.0843 99.6259 19.0812C99.9176 19.0782 100.194 18.9615 100.387 18.7588L101.008 18.1385Z" fill="#FCFAE2"/>
<path d="M108.442 19.1212C108.522 19.1089 108.58 19.0751 108.617 19.0198C108.654 18.9645 108.672 18.8724 108.672 18.7435V16.2991C108.672 16.167 108.654 16.0749 108.617 16.0227C108.58 15.9674 108.522 15.9337 108.442 15.9214C108.362 15.9091 108.221 15.903 108.021 15.903V15.8047H109.701V15.903C109.501 15.903 109.363 15.9091 109.28 15.9214C109.2 15.9337 109.142 15.9674 109.105 16.0227C109.068 16.078 109.05 16.1701 109.05 16.2991V19.1427H110.036C110.254 19.1427 110.432 19.1089 110.573 19.0413C110.714 18.9738 110.84 18.8724 110.948 18.7404C111.055 18.6083 111.19 18.4057 111.353 18.1416L111.433 18.1907L110.929 19.2409H108.024V19.1427C108.221 19.1396 108.362 19.1334 108.442 19.1212Z" fill="#FCFAE2"/>
<path d="M114.636 19.0536C114.354 18.8969 114.13 18.682 113.964 18.4118C113.798 18.1415 113.715 17.8437 113.715 17.5212C113.715 17.1988 113.798 16.9009 113.964 16.6307C114.13 16.3605 114.354 16.1486 114.636 15.9889C114.919 15.8323 115.232 15.7524 115.57 15.7524C115.908 15.7524 116.221 15.8323 116.503 15.9889C116.786 16.1455 117.01 16.3605 117.176 16.6307C117.342 16.9009 117.425 17.1988 117.425 17.5212C117.425 17.8437 117.342 18.1415 117.176 18.4118C117.01 18.682 116.786 18.8939 116.503 19.0536C116.221 19.2102 115.908 19.29 115.57 19.29C115.232 19.29 114.922 19.2102 114.636 19.0536ZM116.328 18.9645C116.54 18.814 116.709 18.6114 116.829 18.3565C116.949 18.1016 117.01 17.8222 117.01 17.5212C117.01 17.2172 116.949 16.9378 116.823 16.6829C116.7 16.428 116.525 16.2254 116.301 16.078C116.077 15.9306 115.819 15.8538 115.53 15.8538C115.269 15.8538 115.029 15.9306 114.818 16.081C114.606 16.2315 114.437 16.4342 114.317 16.689C114.197 16.9439 114.136 17.2234 114.136 17.5243C114.136 17.8283 114.197 18.1078 114.323 18.3626C114.446 18.6175 114.621 18.8202 114.845 18.9676C115.069 19.115 115.327 19.1917 115.616 19.1917C115.877 19.1917 116.113 19.115 116.328 18.9645Z" fill="#FCFAE2"/>
<path d="M120.13 19.1212C120.21 19.1089 120.268 19.0751 120.305 19.0198C120.342 18.9645 120.36 18.8724 120.36 18.7435V16.2991C120.36 16.167 120.342 16.0749 120.305 16.0227C120.268 15.9674 120.21 15.9337 120.13 15.9214C120.05 15.9091 119.909 15.903 119.709 15.903V15.8047H121.613C121.96 15.8047 122.273 15.8784 122.559 16.0289C122.841 16.1763 123.065 16.382 123.228 16.6461C123.391 16.9102 123.471 17.2019 123.471 17.5243C123.471 17.8468 123.391 18.1416 123.228 18.4026C123.065 18.6636 122.841 18.8694 122.559 19.0198C122.276 19.1703 121.96 19.244 121.613 19.244H119.709V19.1457C119.909 19.1396 120.05 19.1334 120.13 19.1212ZM122.353 18.9308C122.577 18.7895 122.749 18.5961 122.869 18.3504C122.989 18.1047 123.05 17.8284 123.05 17.5243C123.05 17.2203 122.989 16.944 122.869 16.6983C122.749 16.4526 122.577 16.2561 122.353 16.1179C122.129 15.9766 121.868 15.906 121.57 15.906H120.735V19.1457H121.57C121.871 19.1396 122.129 19.072 122.353 18.9308Z" fill="#FCFAE2"/>
<path d="M126.336 16.5938C126.495 16.3328 126.717 16.1271 126.996 15.9766C127.275 15.8261 127.586 15.7524 127.923 15.7524C128.267 15.7524 128.581 15.8507 128.866 16.0472L128.955 15.7524H129.038L129.735 17.079L129.655 17.1435C129.425 16.729 129.17 16.4096 128.891 16.1854C128.611 15.9643 128.298 15.8507 127.948 15.8507C127.672 15.8507 127.423 15.9213 127.202 16.0657C126.981 16.21 126.809 16.4065 126.689 16.6522C126.569 16.8979 126.505 17.1712 126.505 17.469C126.505 17.773 126.566 18.0586 126.686 18.3196C126.806 18.5837 126.975 18.7925 127.196 18.9492C127.417 19.1058 127.662 19.1856 127.939 19.1856C128.181 19.1856 128.396 19.1119 128.584 18.9676C128.771 18.8232 128.921 18.6267 129.035 18.378C129.149 18.1323 129.213 17.859 129.228 17.5642H127.193V17.466H129.615V19.2808H129.526L129.321 18.3381C129.195 18.6329 129.014 18.8632 128.78 19.029C128.547 19.1948 128.264 19.2777 127.936 19.2777C127.592 19.2777 127.279 19.1948 126.996 19.0321C126.714 18.8693 126.489 18.6482 126.327 18.3688C126.164 18.0893 126.084 17.7884 126.084 17.4598C126.093 17.1466 126.173 16.8549 126.336 16.5938Z" fill="#FCFAE2"/>
<path d="M132.598 19.1212C132.678 19.1089 132.737 19.0751 132.773 19.0198C132.81 18.9645 132.829 18.8724 132.829 18.7435V16.2991C132.829 16.167 132.81 16.0749 132.773 16.0227C132.737 15.9674 132.678 15.9337 132.598 15.9214C132.519 15.9091 132.377 15.903 132.178 15.903V15.8047H135.046L135.549 16.8518L135.47 16.9071C135.31 16.6399 135.175 16.4373 135.064 16.3052C134.957 16.1732 134.831 16.0718 134.69 16.0043C134.548 15.9367 134.37 15.903 134.152 15.903H133.203V17.3462H134.195C134.37 17.3462 134.496 17.3278 134.576 17.291C134.656 17.2541 134.705 17.1958 134.73 17.1129C134.754 17.0299 134.766 16.904 134.766 16.7351H134.871V18.2183H134.766C134.766 17.9911 134.754 17.8283 134.73 17.7239C134.705 17.6195 134.653 17.5489 134.576 17.5059C134.496 17.4629 134.37 17.4414 134.195 17.4414H133.203V19.1396H134.211C134.429 19.1396 134.607 19.1058 134.748 19.0382C134.889 18.9707 135.015 18.8693 135.123 18.7373C135.23 18.6022 135.365 18.4026 135.528 18.1324L135.608 18.1876L135.104 19.2378H132.178V19.1396C132.38 19.1396 132.519 19.1334 132.598 19.1212Z" fill="#FCFAE2"/>
<path d="M138.88 18.8202C139.175 19.0658 139.519 19.1917 139.906 19.1917C140.112 19.1917 140.293 19.1488 140.447 19.0628C140.6 18.9768 140.717 18.8662 140.8 18.7281C140.883 18.5899 140.923 18.4425 140.923 18.2859C140.923 18.117 140.883 17.9696 140.806 17.8437C140.726 17.7208 140.622 17.6256 140.49 17.5612C140.358 17.4967 140.21 17.466 140.054 17.466C139.946 17.466 139.805 17.4813 139.63 17.5151C139.556 17.5274 139.476 17.5397 139.393 17.5519C139.31 17.5642 139.221 17.5704 139.126 17.5704C138.951 17.5704 138.791 17.5335 138.644 17.4629C138.497 17.3923 138.38 17.2909 138.294 17.162C138.208 17.033 138.162 16.8886 138.162 16.7259C138.162 16.557 138.214 16.3973 138.319 16.2468C138.423 16.0994 138.573 15.9797 138.773 15.8876C138.97 15.7985 139.2 15.7524 139.464 15.7524C139.857 15.7524 140.201 15.8507 140.502 16.0472L140.591 15.7524H140.674L141.371 17.079L141.291 17.1435C140.815 16.2837 140.238 15.8538 139.556 15.8538C139.372 15.8538 139.203 15.8906 139.056 15.9643C138.908 16.038 138.791 16.1394 138.705 16.2653C138.619 16.3912 138.58 16.5324 138.58 16.686C138.58 16.9132 138.656 17.0944 138.807 17.2356C138.957 17.3769 139.154 17.4475 139.393 17.4475C139.501 17.4475 139.642 17.4322 139.817 17.3984C139.891 17.3861 139.971 17.3738 140.054 17.3616C140.136 17.3493 140.226 17.3431 140.321 17.3431C140.502 17.3431 140.671 17.38 140.83 17.4598C140.987 17.5366 141.113 17.6441 141.205 17.7792C141.297 17.9143 141.343 18.0678 141.343 18.2337C141.343 18.4302 141.282 18.6083 141.162 18.7711C141.042 18.9338 140.877 19.0597 140.665 19.1518C140.453 19.244 140.216 19.29 139.958 19.29C139.565 19.29 139.215 19.1825 138.908 18.9707L138.81 19.29H138.73L137.996 17.8621L138.076 17.7976C138.315 18.2306 138.586 18.5714 138.88 18.8202Z" fill="#FCFAE2"/>
</svg>
