<svg width="20" height="20" viewBox="0 0 20 20" fill="none" xmlns="http://www.w3.org/2000/svg">
<g clip-path="url(#clip0_681_9051)">
<path d="M10.0007 15.4163C11.4372 15.4163 12.815 14.8457 13.8308 13.8298C14.8466 12.814 15.4173 11.4363 15.4173 9.99967C15.4173 8.56309 14.8466 7.18533 13.8308 6.16951C12.815 5.15369 11.4372 4.58301 10.0007 4.58301C8.56406 4.58301 7.18631 5.15369 6.17049 6.16951C5.15467 7.18533 4.58398 8.56309 4.58398 9.99967C4.58398 11.4363 5.15467 12.814 6.17049 13.8298C7.18631 14.8457 8.56406 15.4163 10.0007 15.4163Z" stroke="#FCFAE2" stroke-width="1.5" stroke-linecap="round" stroke-linejoin="round"/>
<path d="M15.9493 15.9503L15.841 15.842M15.841 4.15866L15.9493 4.05033M4.04935 15.9503L4.15768 15.842M9.99935 1.73366V1.66699M9.99935 18.3337V18.267M1.73268 10.0003H1.66602M18.3327 10.0003H18.266M4.15768 4.15866L4.04935 4.05033" stroke="#FCFAE2" stroke-width="2" stroke-linecap="round" stroke-linejoin="round"/>
</g>
<defs>
<clipPath id="clip0_681_9051">
<rect width="20" height="20" fill="white"/>
</clipPath>
</defs>
</svg>
