<svg width="16" height="16" viewBox="0 0 16 16" fill="none" xmlns="http://www.w3.org/2000/svg">
<path opacity="0.8" d="M16 1.89583C15.3998 2.22181 14.7648 2.43658 14.115 2.53333C14.7979 2.03349 15.3114 1.23941 15.5593 0.300006C14.9137 0.771918 14.2085 1.10303 13.474 1.27917C13.1647 0.873975 12.7927 0.551632 12.3806 0.331733C11.9686 0.111834 11.525 -0.00102805 11.077 7.05599e-06C9.263 7.05599e-06 7.795 1.80833 7.795 4.03749C7.79371 4.34756 7.82214 4.65671 7.87967 4.95832C6.5789 4.8821 5.30518 4.46732 4.13999 3.74052C2.97481 3.01372 1.94383 1.9909 1.113 0.737505C0.821525 1.35172 0.667377 2.05252 0.666667 2.76666C0.666667 4.16666 1.251 5.40416 2.13333 6.12915C1.61058 6.11365 1.09853 5.9407 0.640667 5.62499V5.67499C0.640667 7.63332 1.774 9.26248 3.274 9.63331C2.99193 9.7273 2.70126 9.77493 2.40933 9.77498C2.20219 9.77543 1.99552 9.7503 1.79233 9.69998C2.20933 11.3041 3.423 12.4708 4.86067 12.5041C3.69246 13.6295 2.25821 14.2378 0.783333 14.2333C0.521539 14.2328 0.259989 14.2133 0 14.175C1.50039 15.3725 3.24448 16.006 5.02467 16C11.07 16 14.3727 9.84581 14.3727 4.50833C14.3727 4.33333 14.369 4.15833 14.3623 3.98749C15.0034 3.41752 15.5579 2.70921 16 1.89583Z" fill="#FCFAE2"/>
</svg>
